<svg width="20" height="20" viewBox="0 0 20 20" fill="none" xmlns="http://www.w3.org/2000/svg">
<path d="M6.66714 10C6.66714 8.15914 8.15905 6.66643 9.99991 6.66643C11.8408 6.66643 13.3335 8.15914 13.3335 10C13.3335 11.8409 11.8408 13.3336 9.99991 13.3336C8.15905 13.3336 6.66714 11.8409 6.66714 10ZM4.86508 10C4.86508 12.836 7.16394 15.1348 9.99991 15.1348C12.8359 15.1348 15.1347 12.836 15.1347 10C15.1347 7.16403 12.8359 4.86517 9.99991 4.86517C7.16394 4.86517 4.86508 7.16403 4.86508 10ZM14.138 4.66157C14.1379 4.8989 14.2082 5.13094 14.34 5.32833C14.4718 5.52572 14.6591 5.6796 14.8784 5.77051C15.0976 5.86142 15.3389 5.88528 15.5717 5.83907C15.8045 5.79286 16.0183 5.67866 16.1862 5.51091C16.3541 5.34315 16.4685 5.12938 16.5149 4.89662C16.5613 4.66387 16.5376 4.42258 16.4469 4.20327C16.3561 3.98397 16.2024 3.79649 16.0051 3.66456C15.8078 3.53262 15.5758 3.46215 15.3385 3.46206H15.338C15.0199 3.46221 14.7148 3.58861 14.4898 3.81352C14.2648 4.03843 14.1383 4.34344 14.138 4.66157ZM5.95995 18.1397C4.985 18.0953 4.45508 17.9329 4.10292 17.7957C3.63605 17.6139 3.30293 17.3975 2.95269 17.0477C2.60246 16.6979 2.38566 16.3651 2.2047 15.8983C2.06742 15.5463 1.90502 15.0162 1.8607 14.0412C1.81222 12.9872 1.80254 12.6705 1.80254 10.0001C1.80254 7.32962 1.81302 7.01387 1.8607 5.95892C1.9051 4.98396 2.0687 4.45493 2.2047 4.10189C2.38646 3.63502 2.60294 3.3019 2.95269 2.95166C3.30245 2.60143 3.63525 2.38463 4.10292 2.20367C4.45492 2.06639 4.985 1.90399 5.95995 1.85967C7.01402 1.81119 7.33066 1.80151 9.99991 1.80151C12.6692 1.80151 12.9861 1.81199 14.0411 1.85967C15.016 1.90407 15.5451 2.06767 15.8981 2.20367C16.365 2.38463 16.6981 2.60191 17.0483 2.95166C17.3986 3.30142 17.6146 3.63502 17.7963 4.10189C17.9336 4.45389 18.096 4.98396 18.1403 5.95892C18.1888 7.01387 18.1985 7.32962 18.1985 10.0001C18.1985 12.6705 18.1888 12.9863 18.1403 14.0412C18.0959 15.0162 17.9327 15.5461 17.7963 15.8983C17.6146 16.3651 17.3981 16.6983 17.0483 17.0477C16.6986 17.3971 16.365 17.6139 15.8981 17.7957C15.5461 17.933 15.016 18.0954 14.0411 18.1397C12.987 18.1882 12.6704 18.1978 9.99991 18.1978C7.32946 18.1978 7.0137 18.1882 5.95995 18.1397ZM5.87715 0.0606472C4.8126 0.109127 4.08516 0.277925 3.44989 0.525123C2.79198 0.780401 2.23502 1.12288 1.67847 1.67855C1.12191 2.23423 0.780313 2.79206 0.525035 3.44998C0.277838 4.08565 0.109039 4.81269 0.0605595 5.87724C0.0112799 6.94347 0 7.28434 0 10C0 12.7157 0.0112799 13.0565 0.0605595 14.1228C0.109039 15.1874 0.277838 15.9143 0.525035 16.55C0.780313 17.2075 1.12199 17.766 1.67847 18.3214C2.23494 18.8769 2.79198 19.2189 3.44989 19.4749C4.08636 19.7221 4.8126 19.8909 5.87715 19.9394C6.94394 19.9878 7.28426 19.9999 9.99991 19.9999C12.7156 19.9999 13.0564 19.9886 14.1227 19.9394C15.1873 19.8909 15.9143 19.7221 16.5499 19.4749C17.2074 19.2189 17.7648 18.8771 18.3214 18.3214C18.8779 17.7658 19.2188 17.2075 19.4748 16.55C19.722 15.9143 19.8916 15.1873 19.9393 14.1228C19.9877 13.0557 19.999 12.7157 19.999 10C19.999 7.28434 19.9877 6.94347 19.9393 5.87724C19.8908 4.81261 19.722 4.08525 19.4748 3.44998C19.2188 2.79246 18.877 2.23511 18.3214 1.67855C17.7657 1.122 17.2074 0.780401 16.5507 0.525123C15.9143 0.277925 15.1872 0.108327 14.1235 0.0606472C13.0572 0.0121676 12.7164 8.7738e-05 10.0007 8.7738e-05C7.28506 8.7738e-05 6.94394 0.0113676 5.87715 0.0606472Z" fill="white"/>
</svg>
