<svg width="25" height="20" viewBox="0 0 25 20" fill="none" xmlns="http://www.w3.org/2000/svg">
<path d="M24.0179 2.85562C23.1687 3.23263 22.2585 3.48577 21.3016 3.60066C22.2782 3.0154 23.0287 2.08902 23.3805 0.986713C22.4685 1.5271 21.4542 1.92027 20.3788 2.13211C19.5171 1.21292 18.2891 0.640221 16.93 0.640221C14.3197 0.640221 12.203 2.75508 12.203 5.36544C12.203 5.73527 12.2461 6.09613 12.3269 6.44262C8.39879 6.24514 4.91771 4.36367 2.58562 1.50376C2.17809 2.20392 1.9465 3.0154 1.9465 3.88073C1.9465 5.51984 2.77951 6.96685 4.04879 7.81602C3.27322 7.79089 2.54433 7.57725 1.907 7.22357C1.907 7.24332 1.907 7.26307 1.907 7.28282C1.907 9.57362 3.53713 11.482 5.69687 11.9183C5.30191 12.026 4.8836 12.0834 4.45273 12.0834C4.14753 12.0834 3.85131 12.0547 3.56226 11.9973C4.16548 13.8734 5.91051 15.2432 7.9769 15.2809C6.36113 16.5483 4.32347 17.3024 2.10807 17.3024C1.72567 17.3024 1.35046 17.2808 0.982422 17.2359C3.07215 18.5788 5.55684 19.3598 8.22644 19.3598C16.9193 19.3598 21.6732 12.1588 21.6732 5.9148C21.6732 5.71014 21.6678 5.50368 21.6606 5.30261C22.5834 4.63655 23.3841 3.80353 24.0179 2.85562Z" fill="white"/>
</svg>
